<svg width="56" height="56" viewBox="0 0 56 56" fill="none" xmlns="http://www.w3.org/2000/svg">
<g clip-path="url(#clip0_435_3658)">
<path d="M23.3333 30.3337C28.488 30.3337 32.6667 26.155 32.6667 21.0003C32.6667 15.8457 28.488 11.667 23.3333 11.667C18.1787 11.667 14 15.8457 14 21.0003C14 26.155 18.1787 30.3337 23.3333 30.3337Z" fill="white" fill-opacity="0.79"/>
<path d="M38.2432 36.307C34.3232 34.3003 29.2365 32.667 23.3332 32.667C17.4298 32.667 12.3432 34.3003 8.42317 36.307C6.08984 37.497 4.6665 39.9003 4.6665 42.5137V49.0003H41.9998V42.5137C41.9998 39.9003 40.5765 37.497 38.2432 36.307Z" fill="white" fill-opacity="0.79"/>
<path d="M47.5063 2.3335L44.2163 5.6235C50.5863 11.9935 50.5863 22.3535 44.2163 28.7235L47.5063 32.0135C55.7196 23.8235 55.7196 10.5235 47.5063 2.3335Z" fill="white" fill-opacity="0.79"/>
<path d="M40.9267 25.4337C45.4767 20.8837 45.4767 13.487 40.9267 8.93701L37.6367 12.227C40.3667 14.957 40.3667 19.3903 37.6367 22.1203L40.9267 25.4337Z" fill="white" fill-opacity="0.79"/>
</g>
<defs>
<clipPath id="clip0_435_3658">
<rect width="56" height="56" fill="white"/>
</clipPath>
</defs>
</svg>
