<svg width="150" height="150" viewBox="0 0 150 150" fill="none" xmlns="http://www.w3.org/2000/svg">
<path fill-rule="evenodd" clip-rule="evenodd" d="M87.5 128.125V26.5625C87.5 22.0106 87.49 19.0682 87.1988 16.9002C86.925 14.867 86.4838 14.2298 86.1269 13.8729C85.77 13.5161 85.1331 13.0748 83.1 12.8014C80.9319 12.5099 77.9894 12.5 73.4375 12.5C68.8856 12.5 65.9431 12.5099 63.775 12.8014C61.742 13.0748 61.1048 13.5161 60.7479 13.8729C60.3911 14.2298 59.9498 14.867 59.6764 16.9002C59.3849 19.0682 59.375 22.0106 59.375 26.5625V128.125H87.5Z" fill="#1C274C"/>
<path opacity="0.7" d="M50 54.6875C50 52.0987 47.9013 50 45.3125 50H26.5625C23.9737 50 21.875 52.0987 21.875 54.6875V128.125H50V54.6875Z" fill="#1C274C"/>
<path opacity="0.7" d="M125 85.9375C125 83.3487 122.901 81.25 120.312 81.25H101.562C98.9737 81.25 96.875 83.3487 96.875 85.9375V128.125H125V85.9375Z" fill="#1C274C"/>
<path opacity="0.5" d="M10.9375 128.125C8.34869 128.125 6.25 130.224 6.25 132.812C6.25 135.401 8.34869 137.5 10.9375 137.5H135.938C138.526 137.5 140.625 135.401 140.625 132.812C140.625 130.224 138.526 128.125 135.938 128.125H134.375H125H96.875H87.5H59.375H50H21.875H12.5H10.9375Z" fill="#1C274C"/>
</svg>
