<svg width="20" height="20" viewBox="0 0 20 20" fill="none" xmlns="http://www.w3.org/2000/svg">
<g clip-path="url(#clip0_433_1727)">
<path d="M16.6667 5.00016H10L8.33335 3.3335H3.33335C2.41669 3.3335 1.67502 4.0835 1.67502 5.00016L1.66669 15.0002C1.66669 15.9168 2.41669 16.6668 3.33335 16.6668H16.6667C17.5834 16.6668 18.3334 15.9168 18.3334 15.0002V6.66683C18.3334 5.75016 17.5834 5.00016 16.6667 5.00016ZM16.6667 15.0002H3.33335V6.66683H16.6667V15.0002ZM6.66669 10.8418L7.84169 12.0168L9.16669 10.7002V14.1668H10.8334V10.7002L12.1584 12.0252L13.3334 10.8418L10.0084 7.50016L6.66669 10.8418Z" fill="white" fill-opacity="0.85"/>
</g>
<defs>
<clipPath id="clip0_433_1727">
<rect width="20" height="20" fill="white"/>
</clipPath>
</defs>
</svg>
