<svg width="94" height="91" viewBox="0 0 94 91" fill="none" xmlns="http://www.w3.org/2000/svg">
<path d="M11.3356 58.0276C5.50833 58.0276 0.784424 53.3037 0.784424 47.4764V44.4486C0.784424 38.6214 5.50834 33.8975 11.3356 33.8975H82.5172C88.3444 33.8975 93.0683 38.6214 93.0683 44.4486V47.4764C93.0683 53.3037 88.3444 58.0276 82.5172 58.0276H11.3356ZM44.3073 90.9993C38.48 90.9993 33.7561 86.2754 33.7561 80.4481V11.4769C33.7561 5.6497 38.48 0.925781 44.3073 0.925781H49.3613C55.1885 0.925781 59.9124 5.64969 59.9124 11.4769V80.4481C59.9124 86.2754 55.1885 90.9993 49.3613 90.9993H44.3073Z" fill="white"/>
</svg>
