<svg width="64" height="64" viewBox="0 0 64 64" fill="none" xmlns="http://www.w3.org/2000/svg">
<g clip-path="url(#clip0_435_3614)">
<path d="M32.0241 0.191895C25.9441 0.191895 20.2591 1.89589 15.4241 4.85189C15.3391 4.90389 15.2561 4.95889 15.1721 5.01189C37.4551 11.0119 43.8791 21.3119 44.6661 31.1319C45.1221 36.8179 41.7191 39.6849 41.7191 39.6849C52.2691 38.7349 63.6391 28.3509 63.6391 28.3509C63.5991 28.4209 63.6791 28.2809 63.6391 28.3509C61.6771 12.5959 48.8231 0.191895 32.0241 0.191895ZM4.32409 48.1919C7.24388 53.2697 11.5135 57.4393 16.6591 60.2379C16.7461 60.2859 16.8361 60.3299 16.9231 60.3779C10.9871 38.0759 16.6881 27.3779 24.7961 21.7779C29.4941 18.5399 33.6761 20.0519 33.6761 20.0519C27.6001 11.3799 12.9131 6.72589 12.9131 6.72589C12.8331 6.72589 12.9931 6.72589 12.9131 6.72589C0.24809 16.3019 -4.06491 33.6259 4.33309 48.1829M59.7261 47.8959C62.7661 42.6299 64.1331 36.8559 64.0001 31.1999C63.9991 31.0999 63.9901 31.0029 63.9901 30.9029C47.6441 47.2029 35.5201 47.6029 26.6251 43.3849C21.4721 40.9379 20.6901 36.5569 20.6901 36.5569C16.2381 46.1689 19.5451 61.2069 19.5451 61.2069C19.5051 61.1369 19.5851 61.2769 19.5451 61.2069C34.1691 67.3869 51.3381 62.4569 59.7381 47.9069" fill="#009245"/>
<path d="M30.7322 31.0558C31.0072 30.7092 31.4085 30.4859 31.8479 30.4349C32.2874 30.3839 32.7292 30.5094 33.0762 30.7838C33.4231 31.0588 33.6466 31.4603 33.6976 31.9C33.7486 32.3397 33.6229 32.7817 33.3482 33.1288C33.0731 33.4755 32.6715 33.6988 32.2318 33.7496C31.7921 33.8004 31.3502 33.6746 31.0032 33.3998C30.6565 33.1246 30.4332 32.7231 30.3824 32.2834C30.3316 31.8437 30.4574 31.4028 30.7322 31.0558ZM33.3392 39.9198C38.0392 41.4558 39.8292 39.8828 39.8292 39.8828C37.1852 37.3308 36.5752 36.6528 37.1942 34.6968C38.4282 30.7808 38.5062 29.0838 38.0302 27.0738C36.8922 22.2638 34.7602 21.4678 34.7602 21.4678C33.8262 25.0178 33.6582 25.8108 31.5832 26.3278C27.5982 27.3498 26.1332 28.0278 24.6082 29.3998C20.9322 32.7048 21.3952 35.0678 21.3952 35.0678C24.9182 34.0318 25.7792 33.8818 27.1732 35.3628C29.2092 37.5628 31.3872 39.2828 33.3382 39.9208L33.3392 39.9198Z" fill="#FBB03B"/>
</g>
<defs>
<clipPath id="clip0_435_3614">
<rect width="64" height="64" fill="white"/>
</clipPath>
</defs>
</svg>
